HIERARCHY
ROOT Hips
{
	OFFSET 0.00000 0.00000 0.00000
	CHANNELS 6 Xposition Yposition Zposition Zrotation Yrotation Xrotation 
	JOINT LHipJoint
	{
		OFFSET 0 0 0
		CHANNELS 3 Zrotation Yrotation Xrotation
		JOINT LeftHip
		{
			OFFSET 1.42489 -1.84941 0.69647
			CHANNELS 3 Zrotation Yrotation Xrotation
			JOINT LeftKnee
			{
				OFFSET 2.44443 -6.71602 0.00000
				CHANNELS 3 Zrotation Yrotation Xrotation
				JOINT LeftAnkle
				{
					OFFSET 2.62838 -7.22137 0.00000
					CHANNELS 3 Zrotation Yrotation Xrotation
					JOINT LeftToe
					{
						OFFSET 0.24036 -0.66037 2.29953
						CHANNELS 3 Zrotation Yrotation Xrotation
						End Site
						{
							OFFSET 0.00000 -0.00000 1.19837
						}
					}
				}
			}
		}
	}
	JOINT RHipJoint
	{
		OFFSET 0 0 0
		CHANNELS 3 Zrotation Yrotation Xrotation
		JOINT RightHip
		{
			OFFSET -1.37055 -1.84941 0.69647
			CHANNELS 3 Zrotation Yrotation Xrotation
			JOINT RightKnee
			{
				OFFSET -2.54834 -7.00152 0.00000
				CHANNELS 3 Zrotation Yrotation Xrotation
				JOINT RightAnkle
				{
					OFFSET -2.65692 -7.29983 0.00000
					CHANNELS 3 Zrotation Yrotation Xrotation
					JOINT RightToe
					{
						OFFSET -0.18839 -0.51760 2.29390
						CHANNELS 3 Zrotation Yrotation Xrotation
						End Site
						{
							OFFSET -0.00000 -0.00000 1.18261
						}
					}
				}
			}
		}
	}
	JOINT lowerback
	{
		OFFSET 0 0 0
		CHANNELS 3 Zrotation Yrotation Xrotation
		JOINT Chest
		{
			OFFSET 0.05220 2.15489 0.05011
			CHANNELS 3 Zrotation Yrotation Xrotation
			JOINT Chest2
			{
				OFFSET -0.07653 2.14219 -0.05668
				CHANNELS 3 Zrotation Yrotation Xrotation
				JOINT lowerneck
				{
					OFFSET 0 0 0
					CHANNELS 3 Zrotation Yrotation Xrotation
					JOINT Neck
					{
						OFFSET 0.01370 1.58638 0.01447
						CHANNELS 3 Zrotation Yrotation Xrotation
						JOINT Head
						{
							OFFSET 0.23548 1.54190 -0.21747
							CHANNELS 3 Zrotation Yrotation Xrotation
							End Site
							{
								OFFSET 0.07132 1.59823 -0.08163
							}
						}
					}
				}
				JOINT LeftCollar
				{
					OFFSET 0 0 0
					CHANNELS 3 Zrotation Yrotation Xrotation
					JOINT LeftShoulder
					{
						OFFSET 3.47056 1.45357 -0.58896
CHANNELS 3 Zrotation Xrotation Yrotation
						JOINT LeftElbow
						{
OFFSET 0 -5.190690 0.000000
CHANNELS 3 Zrotation Xrotation Yrotation
							JOINT LeftWrist
							{
OFFSET 0 -3.300160 0.000000
CHANNELS 3 Zrotation Xrotation Yrotation
								JOINT lhand
								{
									OFFSET 0 0 0
CHANNELS 3 Zrotation Xrotation Yrotation
									JOINT LFingers
									{
OFFSET 0 -0.707700 0.000000
CHANNELS 3 Zrotation Xrotation Yrotation
										End Site
										{
OFFSET 0 -0.570560 0.000000
										}
									}
								}
								JOINT LThumb
								{
OFFSET 0 0.000000 0.000000
CHANNELS 3 Zrotation Xrotation Yrotation
									End Site
									{
OFFSET 0 -0.579280 0.579280
									}
								}
							}
						}
					}
				}
				JOINT RightCollar
				{
					OFFSET 0 0 0
					CHANNELS 3 Zrotation Yrotation Xrotation
					JOINT RightShoulder
					{
						OFFSET -2.89018 2.03305 -0.26731
CHANNELS 3 Zrotation Xrotation Yrotation
						JOINT RightElbow
						{
OFFSET 0 -5.239240 0.000000
CHANNELS 3 Zrotation Xrotation Yrotation
							JOINT RightWrist
							{
OFFSET 0 -3.329530 0.000000
CHANNELS 3 Zrotation Xrotation Yrotation
								JOINT rhand
								{
									OFFSET 0 0 0
CHANNELS 3 Zrotation Xrotation Yrotation
									JOINT RFingers
									{
OFFSET 0 -0.607410 0.000000
CHANNELS 3 Zrotation Xrotation Yrotation
										End Site
										{
OFFSET 0 -0.489710 0.000000
										}
									}
								}
								JOINT RThumb
								{
OFFSET 0 0.000000 0.000000
CHANNELS 3 Zrotation Xrotation Yrotation
									End Site
									{
OFFSET 0 -0.497190 0.497190
									}
								}
							}
						}
					}
				}
			}
		}
	}
}
MOTION
Frames: 10
Frame Time: 0.008333333333333333
0.504999 14.892705 20.491639 6.776455 -71.961299 -0.577342 0.000000 0.000000 0.000000 -4.524638 16.196730 -22.653281 9.159421 16.909048 56.639545 2.910277 -1.938200 -31.821592 2.648428 -10.102713 -29.310192 0.000000 0.000000 0.000000 4.977642 33.128470 -41.420317 -14.829900 -19.346650 74.723785 -2.579643 0.121543 -30.412052 -0.746013 5.517102 -15.389458 -3.723635 -6.018817 10.916684 -7.415984 -8.891980 3.537763 -4.456191 -4.519359 -3.007650 -5.110645 0.385152 -5.656957 21.959099 -0.544103 2.967075 7.603312 -0.001657 1.919573 0.000000 0.000000 0.000000 42.194115 -46.558916 -36.871908 113.227350 -57.810153 79.962054 22.249850 -18.685469 12.969878 0.000000 0.000000 0.000000 -7.125000 0.000000 0.000000 -3.506329 15.994524 -2.368947 0.000000 0.000000 0.000000 -3.987046 -9.335555 71.478721 -58.182017 -55.805575 -32.832897 -31.229908 -13.485563 4.828364 0.000000 0.000000 0.000000 7.125000 0.000000 0.000000 -3.813471 35.600166 -0.882392
0.386256 15.205066 21.055606 126.592873 -89.291496 -119.416152 0.000000 0.000000 0.000000 -8.049875 20.070351 -15.878124 7.683702 15.880761 51.413886 2.628249 5.519607 -32.947215 1.673670 -8.149972 -23.170831 0.000000 0.000000 0.000000 6.777039 39.472539 -42.316911 -13.542195 -18.969007 70.801145 -1.868334 2.427632 -25.204501 -0.122233 2.250320 -6.198057 -5.065665 -7.318101 7.525941 -6.020833 -10.537352 1.418958 -2.386599 -5.300038 -2.947461 -0.578753 7.940791 -6.953193 13.998958 9.228716 8.164652 4.707774 5.058353 2.864271 0.000000 0.000000 0.000000 122.573521 -64.568687 31.089983 24.954298 -36.091587 8.290479 30.836879 -16.563789 4.485090 0.000000 0.000000 0.000000 -7.125000 0.000000 0.000000 3.129719 24.756953 1.538870 0.000000 0.000000 0.000000 -26.284277 -1.728716 52.006594 -52.822753 -54.072277 -28.444553 -32.900805 -11.950571 4.853597 0.000000 0.000000 0.000000 7.125000 0.000000 0.000000 -5.214633 35.714667 -1.193465
-0.099073 15.792453 21.348226 177.445411 -81.001406 -168.459514 0.000000 0.000000 0.000000 -12.097611 24.677510 -6.618447 3.471136 11.417996 33.706751 1.953879 7.613376 -30.042792 1.427044 -7.553715 -21.366571 0.000000 0.000000 0.000000 7.280212 37.658600 -40.922324 -11.316217 -18.086316 63.804258 -1.188791 7.294148 -19.479006 -0.000041 0.013050 -0.035875 -4.541662 -8.394953 3.707448 -4.184273 -11.613375 -0.143852 -1.186530 -5.813401 -2.185781 2.134752 11.807019 -8.215102 7.786704 14.541782 10.875131 2.862834 7.624877 4.161481 0.000000 0.000000 0.000000 154.696358 -49.796194 79.517017 7.450644 -12.658292 0.827641 24.065741 5.892726 -0.543556 0.000000 0.000000 0.000000 -7.125000 0.000000 0.000000 -1.983170 30.571720 -0.699224 0.000000 0.000000 0.000000 -41.642699 10.626605 44.980203 -55.413507 -54.958371 -30.554237 -28.714793 -9.644985 2.968587 0.000000 0.000000 0.000000 7.125000 0.000000 0.000000 -1.723331 33.360247 -0.491755
-0.598894 16.050991 21.445055 179.687135 -77.678482 -168.956087 0.000000 0.000000 0.000000 -14.143441 27.671898 12.199226 0.001202 0.020417 0.056257 0.178872 14.519545 -22.458170 1.376642 -7.424934 -20.980404 0.000000 0.000000 0.000000 7.646356 37.718993 -38.909458 -9.994923 -17.406949 59.471380 -1.090924 9.448526 -18.820963 -0.017177 -0.846917 2.327793 -3.231471 -8.832529 -0.042077 -2.436379 -11.940128 -1.729511 -0.586116 -5.975952 -1.633983 2.324124 11.873488 -8.475744 6.734863 14.731825 11.036236 2.570548 7.683180 4.342951 0.000000 0.000000 0.000000 158.456478 -42.511531 89.275180 6.223608 -10.634678 0.579820 20.187681 19.444449 -1.852595 0.000000 0.000000 0.000000 -7.125000 0.000000 0.000000 -5.136858 31.926621 -1.648956 0.000000 0.000000 0.000000 -45.544664 20.785324 43.813371 -53.721569 -54.390470 -29.173720 -24.097516 -9.898916 2.349910 0.000000 0.000000 0.000000 7.125000 0.000000 0.000000 2.016496 32.549325 0.615174
-0.831264 16.100538 21.454107 183.934055 -76.794697 -172.456110 0.000000 0.000000 0.000000 -13.660928 31.908324 11.227921 0.000000 0.000000 0.000000 1.045271 11.027504 -26.212097 0.514194 -4.595317 -12.757891 0.000000 0.000000 0.000000 8.991377 36.688848 -38.151055 -9.531847 -17.138011 57.911845 -1.051040 11.135464 -18.762024 -0.032423 -1.162273 3.195329 -2.328579 -8.805070 -2.028319 -1.249499 -11.793490 -2.082073 -0.178222 -5.909056 -0.828411 1.917278 11.492059 -8.423651 6.299410 14.373490 10.417042 2.449226 7.468456 4.154610 0.000000 0.000000 0.000000 157.661143 -42.324907 82.153712 6.230094 -10.645495 0.581031 18.680894 15.524890 -1.471662 0.000000 0.000000 0.000000 -7.125000 0.000000 0.000000 -6.312667 31.494847 -2.096000 0.000000 0.000000 0.000000 -42.117343 21.845910 44.579776 -50.245377 -53.094028 -26.370255 -22.860411 -9.033535 2.138781 0.000000 0.000000 0.000000 7.125000 0.000000 0.000000 3.005834 32.291142 0.936255
-0.837106 16.026071 21.405781 185.262699 -77.056222 -173.015825 0.000000 0.000000 0.000000 -12.836718 34.563315 10.111563 0.000000 0.000000 0.000000 1.587720 6.260545 -26.772476 0.241419 -3.161961 -8.730047 0.000000 0.000000 0.000000 8.911450 36.500824 -39.549393 -9.743290 -17.262969 58.626860 -1.117486 11.364441 -19.331479 -0.025478 -1.030553 2.832829 -2.546126 -8.528381 -2.152701 -0.904937 -11.404174 -2.034914 0.254512 -5.708636 -0.603719 1.531210 11.099055 -8.315324 5.898003 14.005983 9.128027 2.552741 7.225748 4.153072 0.000000 0.000000 0.000000 158.251690 -42.134473 77.552750 6.928188 -11.800988 0.716882 19.240451 11.945203 -1.231656 0.000000 0.000000 0.000000 -7.125000 0.000000 0.000000 -5.849230 31.252532 -1.974880 0.000000 0.000000 0.000000 -39.941666 19.827882 47.578514 -51.816259 -53.702085 -27.631399 -22.720075 -9.035784 2.138148 0.000000 0.000000 0.000000 7.125000 0.000000 0.000000 3.118922 32.287281 0.971893
-0.802432 15.998189 21.311095 181.803376 -79.182023 -168.959599 0.000000 0.000000 0.000000 -12.364300 35.133507 9.140985 0.000000 0.000000 0.000000 1.633938 2.376815 -25.105524 0.208693 -2.940950 -8.114343 0.000000 0.000000 0.000000 7.715864 36.367170 -40.813900 -10.065736 -17.446630 59.707789 -1.289062 9.702594 -20.420273 -0.011644 -0.696577 1.914223 -3.012618 -8.172141 -1.801711 -1.388624 -10.937609 -1.808786 0.062570 -5.475610 -0.583672 1.616806 11.131062 -8.153984 4.926579 14.154449 9.177931 2.226611 7.256101 4.218509 0.000000 0.000000 0.000000 158.739281 -42.394779 72.577762 8.242011 -13.944156 1.009960 19.176120 6.164774 -0.938444 0.000000 0.000000 0.000000 -7.125000 0.000000 0.000000 -5.879661 30.942720 -2.029155 0.000000 0.000000 0.000000 -40.075340 18.664963 49.771419 -54.459299 -54.642892 -29.774518 -22.511246 -9.246463 2.314096 0.000000 0.000000 0.000000 7.125000 0.000000 0.000000 3.296376 32.472762 1.012622
-0.653233 16.042041 21.005603 144.315588 -86.109001 -131.624871 0.000000 0.000000 0.000000 -11.677755 29.630694 8.406284 0.000000 0.000000 0.000000 1.209603 2.152679 -21.652930 0.726051 -5.442517 -15.175547 0.000000 0.000000 0.000000 5.391007 35.001637 -40.970591 -10.433547 -17.646532 60.927887 -1.489969 5.852749 -21.911093 -0.007666 0.560444 -1.540073 -5.166872 -7.829557 0.741842 -3.131849 -10.625131 -0.640827 -0.269347 -5.323316 -0.745043 2.425477 12.652468 -6.729196 2.829650 16.434550 6.256129 1.291462 8.306343 3.127893 0.000000 0.000000 0.000000 159.281388 -46.151774 67.750273 17.579630 -27.598209 4.361737 20.702735 -4.525594 4.219381 0.000000 0.000000 0.000000 -7.125000 0.000000 0.000000 -4.476364 25.467665 -2.121351 0.000000 0.000000 0.000000 -35.890226 20.344360 48.456580 -56.317429 -55.245964 -31.295604 -23.228114 -9.118502 2.321779 0.000000 0.000000 0.000000 7.125000 0.000000 0.000000 2.717870 32.498111 0.832907
-0.287555 16.082563 20.464384 24.757909 -78.112603 -13.020254 0.000000 0.000000 0.000000 -9.751885 17.514527 7.291185 0.000000 0.000000 0.000000 0.619708 3.369479 -16.473113 1.585910 -7.943767 -22.543699 0.000000 0.000000 0.000000 2.969211 31.952253 -40.390651 -10.895527 -17.883597 62.441846 -1.460600 2.348903 -22.209056 -0.140823 2.415721 -6.656239 -4.361360 -4.615912 6.618353 -6.412068 -6.656994 3.904515 -3.764121 -3.434894 0.071821 4.536728 15.432256 -4.549186 -3.243776 20.409445 0.671374 -1.004522 10.163849 1.781443 0.000000 0.000000 0.000000 161.017145 -63.439417 71.774206 63.980165 -57.231982 37.681153 17.844551 -12.046197 10.565040 0.000000 0.000000 0.000000 -7.125000 0.000000 0.000000 -6.508270 18.933284 -4.072292 0.000000 0.000000 0.000000 -20.560008 22.529437 42.831569 -56.945674 -55.439538 -31.812464 -25.505625 -8.672652 2.113924 0.000000 0.000000 0.000000 7.125000 0.000000 0.000000 0.871238 32.320891 0.270381
-0.115473 15.976529 19.813103 11.234630 -60.703745 1.935980 0.000000 0.000000 0.000000 -4.960475 1.331819 -5.638456 0.648473 5.150248 14.337851 0.897785 -2.242131 -17.292716 2.175317 -9.222062 -26.492575 0.000000 0.000000 0.000000 3.016881 27.387675 -40.081696 -11.045274 -17.957213 62.928599 -1.897463 -2.421827 -26.991074 -1.041076 6.488909 -18.209773 2.862161 -1.762401 10.585542 -6.863598 -2.396720 7.358182 -8.663723 -1.079237 1.391347 7.296969 16.849906 -2.603457 -9.651878 22.440208 -0.997478 -3.354370 11.171526 2.194933 0.000000 0.000000 0.000000 7.763297 -78.380271 -88.015896 105.316289 -59.093463 73.223853 0.614550 -17.190316 12.262381 0.000000 0.000000 0.000000 -7.125000 0.000000 0.000000 -18.328490 18.038972 -12.403372 0.000000 0.000000 0.000000 -17.446540 18.492957 48.104960 -56.706251 -55.366115 -31.615371 -27.832483 -8.682360 0.961921 0.000000 0.000000 0.000000 7.125000 0.000000 0.000000 -1.007135 31.066580 -0.343005
